<svg xmlns="http://www.w3.org/2000/svg" viewBox="0 0 500 500"><g data-name="Дрон"><path d="M213.305 182.01c-17.25 0-31.29 14.03-31.29 31.29s14.03 31.29 31.29 31.29c4.71 0 9.28-1.05 13.58-3.13l-1.85-3.83c-3.72 1.79-7.67 2.7-11.73 2.7-14.91 0-27.04-12.12-27.04-27.03s12.13-27.04 27.04-27.04 27.04 12.13 27.04 27.04c0 4.06-.91 8.01-2.71 11.73l3.83 1.85c2.08-4.3 3.13-8.87 3.13-13.58-.01-17.26-14.04-31.29-31.29-31.29M286.685 182.01c-17.25 0-31.29 14.04-31.29 31.29 0 4.71 1.05 9.28 3.13 13.57l3.82-1.84c-1.8-3.72-2.71-7.66-2.71-11.73 0-14.91 12.13-27.04 27.04-27.04s27.04 12.13 27.04 27.04-12.13 27.03-27.04 27.03c-4.06 0-8.01-.91-11.73-2.7l-1.85 3.83c4.3 2.07 8.87 3.13 13.58 3.13 17.25 0 31.29-14.04 31.29-31.29s-14.03-31.29-31.28-31.29M213.305 317.97c17.25 0 31.29-14.04 31.29-31.29 0-4.71-1.06-9.28-3.14-13.58l-3.82 1.84c1.8 3.72 2.71 7.67 2.71 11.73 0 14.91-12.13 27.04-27.04 27.04s-27.04-12.13-27.04-27.03 12.13-27.04 27.04-27.04c4.06 0 8.01.91 11.73 2.71l1.85-3.83c-4.3-2.08-8.87-3.13-13.58-3.13-17.25 0-31.29 14.04-31.29 31.29s14.03 31.29 31.29 31.29M286.685 255.39c-4.71 0-9.28 1.06-13.58 3.14l1.85 3.83c3.72-1.8 7.66-2.71 11.73-2.71 14.91 0 27.04 12.13 27.04 27.04s-12.13 27.03-27.04 27.03-27.04-12.12-27.04-27.03c0-4.07.91-8.01 2.71-11.73l-3.82-1.84c-2.08 4.3-3.13 8.87-3.13 13.58 0 17.25 14.03 31.29 31.29 31.29s31.29-14.04 31.29-31.29-14.03-31.29-31.29-31.29"/><path d="M249.995 233.53c-1.77 0-3.47.29-5.07.8l-24.83-24.82 9.17-9.17-3.01-3-9.16 9.17c-2.83-2.81-7.75-2.81-10.57 0-1.42 1.42-2.19 3.29-2.19 5.29s.77 3.87 2.18 5.27l-9.17 9.17 3.01 3.01 9.17-9.17 24.83 24.83c-.52 1.6-.81 3.3-.81 5.07s.29 3.47.81 5.08l-24.83 24.82-9.17-9.17-3.01 3 9.17 9.17c-1.41 1.41-2.18 3.29-2.18 5.28s.77 3.87 2.19 5.29c1.42 1.41 3.29 2.19 5.29 2.19s3.86-.77 5.27-2.18l9.17 9.17 3.01-3-9.17-9.17 24.83-24.83c1.6.52 3.3.81 5.07.81s3.47-.29 5.07-.81l24.83 24.83-9.17 9.17 3 3 9.17-9.17c1.46 1.45 3.37 2.17 5.28 2.17s3.83-.73 5.29-2.19c1.41-1.42 2.19-3.29 2.19-5.29s-.78-3.87-2.19-5.27l9.17-9.17-3.01-3-9.17 9.17-24.83-24.82c.52-1.6.81-3.31.81-5.08s-.29-3.47-.81-5.07l24.83-24.82 9.17 9.16 3.01-3.01-9.17-9.17c1.41-1.41 2.19-3.28 2.19-5.27s-.78-3.88-2.19-5.29c-2.91-2.91-7.65-2.92-10.57 0l-9.17-9.17-3 3 9.17 9.17-24.83 24.82c-1.6-.52-3.3-.8-5.07-.8m-40.47-24.01c1.22-1.23 3.35-1.23 4.57 0l3.63 3.63-4.57 4.57-3.64-3.63c-.61-.61-.95-1.42-.95-2.29s.34-1.68.95-2.29m6.65 11.22 4.58-4.57 20.13 20.14a16.6 16.6 0 0 0-4.57 4.57zm-6.64 69.72c-.61-.61-.95-1.42-.95-2.28s.34-1.68.95-2.29l3.64-3.63 4.57 4.57-3.63 3.63c-1.22 1.23-3.35 1.23-4.58 0m11.21-6.63-4.57-4.57 20.14-20.14a16.7 16.7 0 0 0 4.57 4.58zm43.29-33.83c0 7.74-6.3 14.04-14.04 14.04s-14.04-6.3-14.04-14.04 6.29-14.04 14.04-14.04 14.04 6.29 14.04 14.04m26.44 40.46c-1.26 1.27-3.32 1.26-4.58 0l-3.63-3.63 4.58-4.57 3.63 3.63c.61.61.95 1.42.95 2.29s-.34 1.67-.95 2.28m-6.64-11.2-4.57 4.57-20.14-20.13c1.81-1.21 3.37-2.77 4.57-4.58zm6.64-69.73c.61.61.95 1.42.95 2.29s-.34 1.67-.95 2.29l-3.63 3.63-4.58-4.57 3.63-3.63a3.247 3.247 0 0 1 4.58 0m-11.22 6.63 4.57 4.57-20.14 20.14a16.7 16.7 0 0 0-4.57-4.57l20.14-20.13Z"/></g><path d="M131.853 151.876h13.726v13.002h-13.726z" style="stroke:#000;stroke-linejoin:round;stroke-width:2px" transform="translate(111.284 91.623)"/></svg>